{"asset":{"version":"2.0","generator":"THREE.GLTFExporter"},"scenes":[{"nodes":[0]}],"scene":0,"nodes":[{"mesh":0}],"bufferViews":[{"buffer":0,"byteOffset":0,"byteLength":14868,"target":34962,"byteStride":12},{"buffer":0,"byteOffset":14868,"byteLength":2480,"target":34963}],"buffers":[{"byteLength":17348,"uri":"data:application/octet-stream;base64,"}],"accessors":[{"bufferView":0,"componentType":5126,"count":1239,"max":[28.587656021118164,0.20000000298023224,9.84515380859375],"min":[-28.23834228515625,0.20000000298023224,-8.172845840454102],"type":"VEC3"},{"bufferView":1,"componentType":5123,"count":1239,"max":[1238],"min":[0],"type":"SCALAR"}],"materials":[{"pbrMetallicRoughness":{"metallicFactor":0,"roughnessFactor":1}}],"meshes":[{"primitives":[{"mode":4,"attributes":{"POSITION":0},"indices":1,"material":0}]}]}