{
	"asset":{
		"generator":"Khronos glTF Blender I/O v3.6.27",
		"version":"2.0"
	},
	"scene":0,
	"scenes":[
		{
			"name":"Scene",
			"nodes":[
				0
			]
		}
	],
	"nodes":[
		{
			"mesh":0,
			"name":"NavMesh Exported NavMesh",
			"rotation":[
				-0.49847671389579773,
				-0.5015186071395874,
				-0.501518726348877,
				0.49847668409347534
			],
			"scale":[
				-0.9999999403953552,
				-0.9999999403953552,
				-1
			],
			"translation":[
				-29,
				0,
				9.993258476257324
			]
		}
	],
	"meshes":[
		{
			"name":"NavMesh Exported NavMesh",
			"primitives":[
				{
					"attributes":{
						"POSITION":0,
						"NORMAL":1
					},
					"indices":2
				}
			]
		}
	],
	"accessors":[
		{
			"bufferView":0,
			"componentType":5126,
			"count":191,
			"max":[
				18.26667022705078,
				-0.6666678786277771,
				-0.06665977835655212
			],
			"min":[
				4.6666669845581055,
				-57.20000076293945,
				-0.13332650065422058
			],
			"type":"VEC3"
		},
		{
			"bufferView":1,
			"componentType":5126,
			"count":191,
			"type":"VEC3"
		},
		{
			"bufferView":2,
			"componentType":5123,
			"count":255,
			"type":"SCALAR"
		}
	],
	"bufferViews":[
		{
			"buffer":0,
			"byteLength":2292,
			"byteOffset":0,
			"target":34962
		},
		{
			"buffer":0,
			"byteLength":2292,
			"byteOffset":2292,
			"target":34962
		},
		{
			"buffer":0,
			"byteLength":510,
			"byteOffset":4584,
			"target":34963
		}
	],
	"buffers":[
		{
			"byteLength":5096,
			"uri":"data:application/octet-stream;base64,"
		}
	]
}
