{"asset":{"version":"2.0","generator":"THREE.GLTFExporter"},"scenes":[{"nodes":[0]}],"scene":0,"nodes":[{"mesh":0}],"bufferViews":[{"buffer":0,"byteOffset":0,"byteLength":12564,"target":34962,"byteStride":12},{"buffer":0,"byteOffset":12564,"byteLength":2096,"target":34963}],"buffers":[{"byteLength":14660,"uri":"data:application/octet-stream;base64,"}],"accessors":[{"bufferView":0,"componentType":5126,"count":1047,"max":[26.919626235961914,0.4000000059604645,8.00024127960205],"min":[-29.280376434326172,0.4000000059604645,-8.799759864807129],"type":"VEC3"},{"bufferView":1,"componentType":5123,"count":1047,"max":[1046],"min":[0],"type":"SCALAR"}],"materials":[{"pbrMetallicRoughness":{"metallicFactor":0,"roughnessFactor":1}}],"meshes":[{"primitives":[{"mode":4,"attributes":{"POSITION":0},"indices":1,"material":0}]}]}