{"asset":{"version":"2.0","generator":"THREE.GLTFExporter"},"scenes":[{"nodes":[0]}],"scene":0,"nodes":[{"mesh":0}],"bufferViews":[{"buffer":0,"byteOffset":0,"byteLength":13824,"target":34962,"byteStride":12},{"buffer":0,"byteOffset":13824,"byteLength":2304,"target":34963}],"buffers":[{"byteLength":16128,"uri":"data:application/octet-stream;base64,"}],"accessors":[{"bufferView":0,"componentType":5126,"count":1152,"max":[-0.7637996673583984,0.20000000298023224,-0.40118408203125],"min":[-18.363800048828125,0.20000000298023224,-57.40118408203125],"type":"VEC3"},{"bufferView":1,"componentType":5123,"count":1152,"max":[1151],"min":[0],"type":"SCALAR"}],"materials":[{"pbrMetallicRoughness":{"metallicFactor":0,"roughnessFactor":1}}],"meshes":[{"primitives":[{"mode":4,"attributes":{"POSITION":0},"indices":1,"material":0}]}]}