{"asset":{"version":"2.0","generator":"THREE.GLTFExporter"},"scenes":[{"nodes":[0]}],"scene":0,"nodes":[{"mesh":0}],"bufferViews":[{"buffer":0,"byteOffset":0,"byteLength":18324,"target":34962,"byteStride":12},{"buffer":0,"byteOffset":18324,"byteLength":3056,"target":34963}],"buffers":[{"byteLength":21380,"uri":"data:application/octet-stream;base64,"}],"accessors":[{"bufferView":0,"componentType":5126,"count":1527,"max":[58.50212097167969,2.6000001430511475,-0.2497386932373047],"min":[1.3161187171936035,0.20000000298023224,-18.71773910522461],"type":"VEC3"},{"bufferView":1,"componentType":5123,"count":1527,"max":[1526],"min":[0],"type":"SCALAR"}],"materials":[{"pbrMetallicRoughness":{"metallicFactor":0,"roughnessFactor":1}}],"meshes":[{"primitives":[{"mode":4,"attributes":{"POSITION":0},"indices":1,"material":0}]}]}