{"asset":{"version":"2.0","generator":"THREE.GLTFExporter"},"scenes":[{"nodes":[0]}],"scene":0,"nodes":[{"mesh":0}],"bufferViews":[{"buffer":0,"byteOffset":0,"byteLength":32868,"target":34962,"byteStride":12},{"buffer":0,"byteOffset":32868,"byteLength":5480,"target":34963}],"buffers":[{"byteLength":38348,"uri":"data:application/octet-stream;base64,"}],"accessors":[{"bufferView":0,"componentType":5126,"count":2739,"max":[58.55011749267578,2.6000001430511475,-0.003739595413208008],"min":[1.190118670463562,0.20000000298023224,-18.843738555908203],"type":"VEC3"},{"bufferView":1,"componentType":5123,"count":2739,"max":[2738],"min":[0],"type":"SCALAR"}],"materials":[{"pbrMetallicRoughness":{"metallicFactor":0,"roughnessFactor":1}}],"meshes":[{"primitives":[{"mode":4,"attributes":{"POSITION":0},"indices":1,"material":0}]}]}