{"asset":{"version":"2.0","generator":"THREE.GLTFExporter"},"scenes":[{"nodes":[0]}],"scene":0,"nodes":[{"mesh":0}],"bufferViews":[{"buffer":0,"byteOffset":0,"byteLength":16992,"target":34962,"byteStride":12},{"buffer":0,"byteOffset":16992,"byteLength":2832,"target":34963}],"buffers":[{"byteLength":19824,"uri":"data:application/octet-stream;base64,"}],"accessors":[{"bufferView":0,"componentType":5126,"count":1416,"max":[58.4481201171875,2.6000001430511475,-0.19173860549926758],"min":[1.412118673324585,0.20000000298023224,-18.62173843383789],"type":"VEC3"},{"bufferView":1,"componentType":5123,"count":1416,"max":[1415],"min":[0],"type":"SCALAR"}],"materials":[{"pbrMetallicRoughness":{"metallicFactor":0,"roughnessFactor":1}}],"meshes":[{"primitives":[{"mode":4,"attributes":{"POSITION":0},"indices":1,"material":0}]}]}